<svg version="1.1" style="font-family: &quot;Courier New&quot;; font-size: 12px;" xmlns="http://www.w3.org/2000/svg" width="600" height="400" viewBox="0 0 600 400" aria-hidden="false" aria-label="Interactive chart"><defs aria-hidden="true"><clipPath ><rect x="0" y="0" width="580" height="266" fill="none"></rect></clipPath></defs><rect fill="#ffffff" x="0" y="0" width="600" height="400" rx="0" ry="0" aria-hidden="true"></rect><rect fill="none" x="10" y="66" width="580" height="266" aria-hidden="true"></rect><g data-z-index="0" aria-hidden="true"></g><rect fill="none" data-z-index="1" x="10" y="66" width="580" height="266" aria-hidden="true"></rect><g data-z-index="3" aria-hidden="false"><g data-z-index="0.1" opacity="1" transform="translate(10,66) scale(1 1)" aria-hidden="false" clip-path="none" style="cursor: pointer;"><path fill="#6f58e9" d="M 215.62751528304938 200.44548551998827 A 100.4 100.4 0 0 1 192.68175576110272 108.31560536982244 L 193.65106098260569 108.56146587410707 A 99.4 99.4 0 0 0 216.368277083019 199.77371773592463 Z" data-z-index="-1" fill-opacity="0.25" visibility="hidden"></path><path fill="#94d13d" d="M 289.97955121034903 32.60000208243527 A 100.4 100.4 0 0 1 390.07081783940424 141.1235101374206 L 290 133 A 0 0 0 0 0 290 133 Z" transform="translate(0,0)" stroke="#ffffff" stroke-width="1" opacity="1" stroke-linejoin="round" tabindex="-1" role="img" aria-label="Top 1%, 94.68." style="outline: currentcolor;"></path><path fill="rgb(45,218,193)" d="M 390.062644295216 141.2235768768268 A 100.4 100.4 0 0 1 316.4697036037781 229.84789513008602 L 290 133 A 0 0 0 0 0 290 133 Z" transform="translate(0,0)" stroke="#ffffff" stroke-width="1" opacity="1" stroke-linejoin="round" tabindex="-1" role="img" aria-label="Top 11%-25%, 70.128." style="outline: currentcolor;"></path><path fill="rgb(137,152,51)" d="M 316.37284248993865 229.87431640533464 A 100.4 100.4 0 0 1 215.6949979435677 200.51982426956982 L 290 133 A 0 0 0 0 0 290 133 Z" transform="translate(0,0)" stroke="#ffffff" stroke-width="1" opacity="1" stroke-linejoin="round" tabindex="-1" role="img" aria-label="Top 26%-50%, 63.036." style="outline: currentcolor;"></path><path fill="rgb(111,88,233)" d="M 215.62751528304938 200.44548551998827 A 100.4 100.4 0 0 1 192.68175576110272 108.31560536982244 L 290 133 A 0 0 0 0 0 290 133 Z" transform="translate(0,0)" stroke="#ffffff" stroke-width="1" opacity="1" stroke-linejoin="round" tabindex="-1" role="img" aria-label="Top 2%-5%, 56.484." style="outline: currentcolor;"></path><path fill="#2d99fe" d="M 192.70648881073691 108.21829948399954 A 100.4 100.4 0 0 1 228.8094451965557 53.40178392170661 L 290 133 A 0 0 0 0 0 290 133 Z" transform="translate(0,0)" stroke="#ffffff" stroke-width="1" opacity="1" stroke-linejoin="round" tabindex="-1" role="img" aria-label="Top 6%-10%, 38.232." style="outline: currentcolor;"></path><path fill="#d92527" d="M 228.8890739946425 53.340633176206296 A 100.4 100.4 0 0 1 289.8605464142176 32.60009684916318 L 290 133 A 0 0 0 0 0 290 133 Z" transform="translate(0,0)" stroke="#ffffff" stroke-width="1" opacity="1" stroke-linejoin="round" tabindex="-1" role="img" aria-label="Bottom 50%, 37.476." style="outline: currentcolor;"></path></g><g data-z-index="0.1" opacity="1" transform="translate(10,66) scale(1 1)" aria-hidden="true" clip-path="none"></g></g><g data-z-index="3" aria-hidden="true"><g stroke-linecap="round" transform="translate(566,10)" style="cursor: pointer;"><title>Chart context menu</title><rect fill="#ffffff" x="0.5" y="0.5" width="24" height="22" rx="2" ry="2" stroke="none" stroke-width="1"></rect><path fill="#666666" d="M 6 6.5 L 20 6.5 M 6 11.5 L 20 11.5 M 6 16.5 L 20 16.5" data-z-index="1" stroke="#666666" stroke-width="3"></path><text font-family='Courier New-Regular,Courier New' x="0" data-z-index="1" y="15.5" style="color: rgb(51, 51, 51); font-weight: normal; fill: rgb(51, 51, 51);"></text></g></g><text font-family='Courier New-Regular,Courier New' x="300" text-anchor="middle" data-z-index="4" y="24" aria-hidden="true" style="color: rgb(51, 51, 51); font-size: 18px; fill: rgb(51, 51, 51);">Percent of US Income Earned By Each Percentile<tspan dy="21" x="300">​</tspan>According to Latest Available Data</text><text font-family='Courier New-Regular,Courier New' x="300" text-anchor="middle" data-z-index="4" y="65" aria-hidden="true" style="color: rgb(102, 102, 102); fill: rgb(102, 102, 102);"></text><text font-family='Courier New-Regular,Courier New' x="10" text-anchor="start" data-z-index="4" y="397" aria-hidden="true" style="color: rgb(102, 102, 102); fill: rgb(102, 102, 102);"></text><g data-z-index="6" opacity="1" transform="translate(10,66) scale(1 1)" aria-hidden="true" style="cursor: pointer;"><path fill="none" stroke="#94d13d" stroke-width="1" d="M 390.88727638098766 44.62698246503017 C 385.88727638098766 44.62698246503017 372.6513026474157 56.825711879366494 368.23931140289176 60.8919550174786 L 363.8273201583678 64.95819815559071" opacity="1"></path><path fill="none" stroke="#2ddac1" stroke-width="1" d="M 395.2845810599999 216.34964188057626 C 390.2845810599999 216.34964188057626 376.44161741674833 204.84432321607954 371.8272962023312 201.00921699458064 L 367.21297498791404 197.17411077308174" opacity="1"></path><path fill="none" stroke="#899833" stroke-width="1" d="M 248.38714795620828 258.15454072952934 C 253.38714795620828 258.15454072952934 258.4410692505968 240.87860719324465 260.1257096820596 235.11996268114973 L 261.8103501135224 229.3613181690548" opacity="1"></path><path fill="none" stroke="#6f58e9" stroke-width="1" d="M 158.44025513990192 164.4132293937902 C 163.44025513990192 164.4132293937902 180.91015857151058 160.07704742225476 186.73345971538012 158.63165343174293 L 192.55676085924966 157.1862594412311" opacity="1"></path><path fill="none" stroke="#2d99fe" stroke-width="1" d="M 176.15295386498792 61.191361608212105 C 181.15295386498792 61.191361608212105 196.17785287135462 71.10359696904172 201.18615254014352 74.4076754226516 L 206.19445220893243 77.71175387626147" opacity="1"></path><path fill="none" stroke="#d92527" stroke-width="1" d="M 243.11419435196862 9.510165255534737 C 248.11419435196862 9.510165255534737 253.89597734019378 26.5563080883597 255.82323833626884 32.23835569930135 L 257.7504993323439 37.920403310243" opacity="1"></path><g data-z-index="1" transform="translate(396,35)" opacity="1" style="cursor: pointer;"><text font-family='Courier New-Regular,Courier New' x="5" data-z-index="1" y="16" style="color: rgb(0, 0, 0); font-size: 11px; font-weight: bold; fill: rgb(0, 0, 0);"><tspan style="font-weight: bold;">Top 1%</tspan>: 26.3 %</text></g><g data-z-index="1" transform="translate(400,206)" opacity="1" style="cursor: pointer;"><text font-family='Courier New-Regular,Courier New' x="5" data-z-index="1" y="16" style="color: rgb(0, 0, 0); font-size: 11px; font-weight: bold; fill: rgb(0, 0, 0);"><tspan style="font-weight: bold;">Top 11%-25%</tspan>: 19.5 %</text></g><g data-z-index="1" transform="translate(108,248)" opacity="1" style="cursor: pointer;"><text font-family='Courier New-Regular,Courier New' x="5" data-z-index="1" y="16" style="color: rgb(0, 0, 0); font-size: 11px; font-weight: bold; fill: rgb(0, 0, 0);"><tspan style="font-weight: bold;">Top 26%-50%</tspan>: 17.5 %</text></g><g data-z-index="1" transform="translate(31,154)" opacity="1" style="cursor: pointer;"><text font-family='Courier New-Regular,Courier New' x="5" data-z-index="1" y="16" style="color: rgb(0, 0, 0); font-size: 11px; font-weight: bold; fill: rgb(0, 0, 0);"><tspan style="font-weight: bold;">Top 2%-5%</tspan>: 15.7 %</text></g><g data-z-index="1" transform="translate(42,51)" opacity="1" style="cursor: pointer;"><text font-family='Courier New-Regular,Courier New' x="5" data-z-index="1" y="16" style="color: rgb(0, 0, 0); font-size: 11px; font-weight: bold; fill: rgb(0, 0, 0);"><tspan style="font-weight: bold;">Top 6%-10%</tspan>: 10.6 %</text></g><g data-z-index="1" transform="translate(109,0)" opacity="1" style="cursor: pointer;"><text font-family='Courier New-Regular,Courier New' x="5" data-z-index="1" y="16" style="color: rgb(0, 0, 0); font-size: 11px; font-weight: bold; fill: rgb(0, 0, 0);"><tspan style="font-weight: bold;">Bottom 50%</tspan>: 10.4 %</text></g></g><g data-z-index="7" aria-hidden="true" transform="translate(62,344)"><rect fill="none" rx="0" ry="0" x="0" y="0" width="476" height="41"></rect><g data-z-index="1"><g><g data-z-index="1" transform="translate(8,3)"><text font-family='Courier New-Regular,Courier New' x="21" text-anchor="start" data-z-index="2" y="15" style="color: rgb(51, 51, 51); cursor: pointer; font-size: 12px; font-weight: bold; fill: rgb(51, 51, 51);">Top 1%</text><rect x="2" y="4" width="12" height="12" fill="#94d13d" rx="6" ry="6" data-z-index="3"></rect></g><g data-z-index="1" transform="translate(128.21875,3)"><text font-family='Courier New-Regular,Courier New' x="21" y="15" text-anchor="start" data-z-index="2" style="color: rgb(51, 51, 51); cursor: pointer; font-size: 12px; font-weight: bold; fill: rgb(51, 51, 51);">Top 11%-25%</text><rect x="2" y="4" width="12" height="12" fill="#2ddac1" rx="6" ry="6" data-z-index="3"></rect></g><g data-z-index="1" transform="translate(248.4375,3)"><text font-family='Courier New-Regular,Courier New' x="21" y="15" text-anchor="start" data-z-index="2" style="color: rgb(51, 51, 51); cursor: pointer; font-size: 12px; font-weight: bold; fill: rgb(51, 51, 51);">Top 26%-50%</text><rect x="2" y="4" width="12" height="12" fill="#899833" rx="6" ry="6" data-z-index="3"></rect></g><g data-z-index="1" transform="translate(368.65625,3)"><text font-family='Courier New-Regular,Courier New' x="21" y="15" text-anchor="start" data-z-index="2" style="color: rgb(51, 51, 51); cursor: pointer; font-size: 12px; font-weight: bold; fill: rgb(51, 51, 51);">Top 2%-5%</text><rect x="2" y="4" width="12" height="12" fill="#6f58e9" rx="6" ry="6" data-z-index="3"></rect></g><g data-z-index="1" transform="translate(8,18)"><text font-family='Courier New-Regular,Courier New' x="21" y="15" text-anchor="start" data-z-index="2" style="color: rgb(51, 51, 51); cursor: pointer; font-size: 12px; font-weight: bold; fill: rgb(51, 51, 51);">Top 6%-10%</text><rect x="2" y="4" width="12" height="12" fill="#2d99fe" rx="6" ry="6" data-z-index="3"></rect></g><g data-z-index="1" transform="translate(128.21875,18)"><text font-family='Courier New-Regular,Courier New' x="21" y="15" text-anchor="start" data-z-index="2" style="color: rgb(51, 51, 51); cursor: pointer; font-size: 12px; font-weight: bold; fill: rgb(51, 51, 51);">Bottom 50%</text><rect x="2" y="4" width="12" height="12" fill="#d92527" rx="6" ry="6" data-z-index="3"></rect></g></g></g></g></svg>