<svg version="1.1" style="font-family: &quot;Courier New&quot;; font-size: 12px;" xmlns="http://www.w3.org/2000/svg" width="600" height="400" viewBox="0 0 600 400" aria-hidden="false" aria-label="Interactive chart"><defs aria-hidden="true"><clipPath ><rect x="0" y="0" width="580" height="266" fill="none"></rect></clipPath></defs><rect fill="#ffffff" x="0" y="0" width="600" height="400" rx="0" ry="0" aria-hidden="true"></rect><rect fill="none" x="10" y="66" width="580" height="266" aria-hidden="true"></rect><g data-z-index="0" aria-hidden="true"></g><rect fill="none" data-z-index="1" x="10" y="66" width="580" height="266" aria-hidden="true"></rect><g data-z-index="3" aria-hidden="false"><g data-z-index="0.1" opacity="1" transform="translate(10,66) scale(1 1)" aria-hidden="false" clip-path="none" style="cursor: pointer;"><path fill="#94d13d" d="M 289.97955121034903 32.60000208243527 A 100.4 100.4 0 0 1 316.4697036037781 229.84789513008602 L 290 133 A 0 0 0 0 0 290 133 Z" transform="translate(0,0)" stroke="#ffffff" stroke-width="1" opacity="1" stroke-linejoin="round" tabindex="-1" role="img" aria-label="Top 1%, 164.808." style="outline: currentcolor;"></path><path fill="#d92527" d="M 316.37284248993865 229.87431640533464 A 100.4 100.4 0 0 1 301.9988036275563 232.68043294201397 L 290 133 A 0 0 0 0 0 290 133 Z" transform="translate(0,0)" stroke="#ffffff" stroke-width="1" opacity="1" stroke-linejoin="round" tabindex="-1" role="img" aria-label="Bottom 50%, 8.424." style="outline: currentcolor;"></path><path fill="#899833" d="M 301.89911721182636 232.6923819034294 A 100.4 100.4 0 0 1 249.8688195469374 225.03069246421938 L 290 133 A 0 0 0 0 0 290 133 Z" transform="translate(0,0)" stroke="#ffffff" stroke-width="1" opacity="1" stroke-linejoin="round" tabindex="-1" role="img" aria-label="Top 26%-50%, 30.384." style="outline: currentcolor;"></path><path fill="#2d99fe" d="M 249.7768089354002 224.99051527511244 A 100.4 100.4 0 0 1 202.90053523101864 182.93839441709133 L 290 133 A 0 0 0 0 0 290 133 Z" transform="translate(0,0)" stroke="#ffffff" stroke-width="1" opacity="1" stroke-linejoin="round" tabindex="-1" role="img" aria-label="Top 6%-10%, 36.612." style="outline: currentcolor;"></path><path fill="#2ddac1" d="M 202.8506403946534 182.8512699976438 A 100.4 100.4 0 0 1 194.77307008349186 101.18818114793737 L 290 133 A 0 0 0 0 0 290 133 Z" transform="translate(0,0)" stroke="#ffffff" stroke-width="1" opacity="1" stroke-linejoin="round" tabindex="-1" role="img" aria-label="Top 11%-25%, 48.312." style="outline: currentcolor;"></path><path fill="#6f58e9" d="M 194.80492951050292 101.09297013980013 A 100.4 100.4 0 0 1 289.8605464142176 32.60009684916318 L 290 133 A 0 0 0 0 0 290 133 Z" transform="translate(0,0)" stroke="#ffffff" stroke-width="1" opacity="1" stroke-linejoin="round" tabindex="-1" role="img" aria-label="Top 2%-5%, 71.496." style="outline: currentcolor;"></path></g><g data-z-index="0.1" opacity="1" transform="translate(10,66) scale(1 1)" aria-hidden="true" clip-path="none"></g></g><g data-z-index="3" aria-hidden="true"><g stroke-linecap="round" transform="translate(566,10)" style="cursor: pointer;"><title>Chart context menu</title><rect fill="#ffffff" x="0.5" y="0.5" width="24" height="22" rx="2" ry="2" stroke="none" stroke-width="1"></rect><path fill="#666666" d="M 6 6.5 L 20 6.5 M 6 11.5 L 20 11.5 M 6 16.5 L 20 16.5" data-z-index="1" stroke="#666666" stroke-width="3"></path><text font-family='Courier New-Regular,Courier New' x="0" data-z-index="1" y="15.5" style="color: rgb(51, 51, 51); font-weight: normal; fill: rgb(51, 51, 51);"></text></g></g><text font-family='Courier New-Regular,Courier New' x="300" text-anchor="middle" data-z-index="4" y="24" aria-hidden="true" style="color: rgb(51, 51, 51); font-size: 18px; fill: rgb(51, 51, 51);">Percent of US Taxes Paid By Each Percentile<tspan dy="21" x="300">​</tspan>According to Latest Available Data</text><text font-family='Courier New-Regular,Courier New' x="300" text-anchor="middle" data-z-index="4" y="65" aria-hidden="true" style="color: rgb(102, 102, 102); fill: rgb(102, 102, 102);"></text><text font-family='Courier New-Regular,Courier New' x="10" text-anchor="start" data-z-index="4" y="397" aria-hidden="true" style="color: rgb(102, 102, 102); fill: rgb(102, 102, 102);"></text><g data-z-index="6" opacity="1" transform="translate(10,66) scale(1 1)" aria-hidden="true" style="cursor: pointer;"><path fill="none" stroke="#94d13d" stroke-width="1" d="M 424.2532299674972 115.74420262725343 C 419.2532299674972 115.74420262725343 401.4115264443764 118.12613784741784 395.4642919366695 118.9201162541393 L 389.5170574289626 119.71409466086077"></path><path fill="none" stroke="#d92527" stroke-width="1" d="M 319.87456796030636 261.0055306179702 C 314.87456796030636 261.0055306179702 311.44096195351557 243.33605553266756 310.29642661791866 237.44623050423334 L 309.15189128232174 231.55640547579912"></path><path fill="none" stroke="#899833" stroke-width="1" d="M 265.939156604569 261.99939631275356 C 270.939156604569 261.99939631275356 273.5702546192756 244.1927311775575 274.44728729084454 238.25717613249216 L 275.3243199624135 232.32162108742682"></path><path fill="none" stroke="#2d99fe" stroke-width="1" d="M 197.91495659213638 230.05851438514043 C 202.91495659213638 230.05851438514043 214.93589816684147 216.66086669394008 218.94287869174318 212.19498413020662 L 222.94985921664488 207.72910156647316"></path><path fill="none" stroke="#2ddac1" stroke-width="1" d="M 155.23180718654535 145.82092562688263 C 160.23180718654535 145.82092562688263 178.14459453809584 144.0511659544602 184.11552365527933 143.4612460636527 L 190.08645277246282 142.87132617284522"></path><path fill="none" stroke="#6f58e9" stroke-width="1" d="M 208.82414034041847 27.16334092043656 C 213.82414034041847 27.16334092043656 224.33921299281468 41.77269570135789 227.84423721028008 46.64248062833167 L 231.3492614277455 51.51226555530545"></path><g data-z-index="1" transform="translate(429,106)" style="cursor: pointer;"><text font-family='Courier New-Regular,Courier New' x="5" data-z-index="1" y="16" style="color: rgb(0, 0, 0); font-size: 11px; font-weight: bold; fill: rgb(0, 0, 0);"><tspan style="font-weight: bold;">Top 1%</tspan>: 45.8 %</text></g><g data-z-index="1" transform="translate(325,251)" style="cursor: pointer;"><text font-family='Courier New-Regular,Courier New' x="5" data-z-index="1" y="16" style="color: rgb(0, 0, 0); font-size: 11px; font-weight: bold; fill: rgb(0, 0, 0);"><tspan style="font-weight: bold;">Bottom 50%</tspan>: 2.3 %</text></g><g data-z-index="1" transform="translate(132,252)" style="cursor: pointer;"><text font-family='Courier New-Regular,Courier New' x="5" data-z-index="1" y="16" style="color: rgb(0, 0, 0); font-size: 11px; font-weight: bold; fill: rgb(0, 0, 0);"><tspan style="font-weight: bold;">Top 26%-50%</tspan>: 8.4 %</text></g><g data-z-index="1" transform="translate(64,220)" style="cursor: pointer;"><text font-family='Courier New-Regular,Courier New' x="5" data-z-index="1" y="16" style="color: rgb(0, 0, 0); font-size: 11px; font-weight: bold; fill: rgb(0, 0, 0);"><tspan style="font-weight: bold;">Top 6%-10%</tspan>: 10.2 %</text></g><g data-z-index="1" transform="translate(15,136)" style="cursor: pointer;"><text font-family='Courier New-Regular,Courier New' x="5" data-z-index="1" y="16" style="color: rgb(0, 0, 0); font-size: 11px; font-weight: bold; fill: rgb(0, 0, 0);"><tspan style="font-weight: bold;">Top 11%-25%</tspan>: 13.4 %</text></g><g data-z-index="1" transform="translate(82,17)" style="cursor: pointer;"><text font-family='Courier New-Regular,Courier New' x="5" data-z-index="1" y="16" style="color: rgb(0, 0, 0); font-size: 11px; font-weight: bold; fill: rgb(0, 0, 0);"><tspan style="font-weight: bold;">Top 2%-5%</tspan>: 19.9 %</text></g></g><g data-z-index="7" aria-hidden="true" transform="translate(62,344)"><rect fill="none" rx="0" ry="0" x="0" y="0" width="476" height="41"></rect><g data-z-index="1"><g><g data-z-index="1" transform="translate(8,3)"><text font-family='Courier New-Regular,Courier New' x="21" text-anchor="start" data-z-index="2" y="15" style="color: rgb(51, 51, 51); cursor: pointer; font-size: 12px; font-weight: bold; fill: rgb(51, 51, 51);">Top 1%</text><rect x="2" y="4" width="12" height="12" fill="#94d13d" rx="6" ry="6" data-z-index="3"></rect></g><g data-z-index="1" transform="translate(128.21875,3)"><text font-family='Courier New-Regular,Courier New' x="21" y="15" text-anchor="start" data-z-index="2" style="color: rgb(51, 51, 51); cursor: pointer; font-size: 12px; font-weight: bold; fill: rgb(51, 51, 51);">Bottom 50%</text><rect x="2" y="4" width="12" height="12" fill="#d92527" rx="6" ry="6" data-z-index="3"></rect></g><g data-z-index="1" transform="translate(248.4375,3)"><text font-family='Courier New-Regular,Courier New' x="21" y="15" text-anchor="start" data-z-index="2" style="color: rgb(51, 51, 51); cursor: pointer; font-size: 12px; font-weight: bold; fill: rgb(51, 51, 51);">Top 26%-50%</text><rect x="2" y="4" width="12" height="12" fill="#899833" rx="6" ry="6" data-z-index="3"></rect></g><g data-z-index="1" transform="translate(368.65625,3)"><text font-family='Courier New-Regular,Courier New' x="21" y="15" text-anchor="start" data-z-index="2" style="color: rgb(51, 51, 51); cursor: pointer; font-size: 12px; font-weight: bold; fill: rgb(51, 51, 51);">Top 6%-10%</text><rect x="2" y="4" width="12" height="12" fill="#2d99fe" rx="6" ry="6" data-z-index="3"></rect></g><g data-z-index="1" transform="translate(8,18)"><text font-family='Courier New-Regular,Courier New' x="21" y="15" text-anchor="start" data-z-index="2" style="color: rgb(51, 51, 51); cursor: pointer; font-size: 12px; font-weight: bold; fill: rgb(51, 51, 51);">Top 11%-25%</text><rect x="2" y="4" width="12" height="12" fill="#2ddac1" rx="6" ry="6" data-z-index="3"></rect></g><g data-z-index="1" transform="translate(128.21875,18)"><text font-family='Courier New-Regular,Courier New' x="21" y="15" text-anchor="start" data-z-index="2" style="color: rgb(51, 51, 51); cursor: pointer; font-size: 12px; font-weight: bold; fill: rgb(51, 51, 51);">Top 2%-5%</text><rect x="2" y="4" width="12" height="12" fill="#6f58e9" rx="6" ry="6" data-z-index="3"></rect></g></g></g></g></svg>